<svg id="デスクワークのフリー素材5" xmlns="http://www.w3.org/2000/svg" width="86.206" height="73.494" viewBox="0 0 86.206 73.494">
  <path id="パス_4569" data-name="パス 4569" d="M174.483,244.2v21.743h-7.514a5.832,5.832,0,0,0,5.6,6.04h42.021a5.834,5.834,0,0,0,5.6-6.04h-7.515V244.2a1.61,1.61,0,0,0-1.611-1.61H176.092A1.61,1.61,0,0,0,174.483,244.2Zm24.087,2.629c0,1.947-1.731,3.895-3.679,3.464A3.653,3.653,0,0,1,198.569,246.826Zm-6.688,4.439c1.356-.435,2.85.143,3.108.944.274-.794,1.781-1.341,3.127-.876a3.929,3.929,0,0,1,1.414.859,3.841,3.841,0,0,0,.183,7.041,5.876,5.876,0,0,1-4.828,2.5,5.961,5.961,0,0,1-5.828-6.033A4.237,4.237,0,0,1,191.881,251.265Z" transform="translate(-138.856 -208.099)" fill="#fff"/>
  <path id="パス_4570" data-name="パス 4570" d="M147.438,59.577a10.913,10.913,0,1,0-10.913-10.913A10.914,10.914,0,0,0,147.438,59.577Z" transform="translate(-113.538 -37.751)" fill="#fff"/>
  <rect id="長方形_3301" data-name="長方形 3301" width="86.206" height="6.655" transform="translate(0 66.839)" fill="#fff"/>
  <path id="パス_4571" data-name="パス 4571" d="M70,227.835l.181,6.689h8.171a8.442,8.442,0,0,1-2.505-6.04v-2.218h7.515V206.741a3.833,3.833,0,0,1,3.829-3.829h19.121c-5.962-5-15.563-5.364-20.857-5.364-7.746,0-21.848.764-23.13,15.744l-1.818,21.232h7.939Z" transform="translate(-50.319 -170.643)" fill="#fff"/>
</svg>
