<svg id="求人アイコン2" xmlns="http://www.w3.org/2000/svg" width="74.779" height="74.832" viewBox="0 0 74.779 74.832">
  <path id="パス_4563" data-name="パス 4563" d="M143.655,301.823l-6.452,8.922-.457-5.846h-3.432l-.457,5.843-6.453-8.918a7.461,7.461,0,0,1-1.113.524,27.617,27.617,0,0,0-6.993,3.519q.572.678,1.21,1.313a21.809,21.809,0,0,0,13.134,6.289,21.337,21.337,0,0,0,2.282.13c.072,0,.142,0,.215,0a21.227,21.227,0,0,0,2.275-.13,21.814,21.814,0,0,0,13.089-6.285c.426-.424.833-.865,1.214-1.317a29.454,29.454,0,0,0-6.948-3.516A8.41,8.41,0,0,1,143.655,301.823Z" transform="translate(-101.035 -257.71)" fill="#fff"/>
  <path id="パス_4564" data-name="パス 4564" d="M164.886,105.212c.468,2.661,1.259,5.008,2.3,6.163v3.208a1,1,0,0,1-.038.254l3.644,1.754v2.573h3.428v-2.573l3.641-1.753a1,1,0,0,1-.038-.255v-3.208c1.041-1.156,1.829-3.5,2.3-6.163,1.094-.392,1.72-1.018,2.5-3.756.832-2.916-1.251-2.817-1.251-2.817,1.685-5.578-.535-10.82-4.248-10.435-2.562-4.481-11.144,1.025-13.834.641a6.081,6.081,0,0,0,.64,2.69c-.935,1.775-.575,5.314-.311,7.1-.153,0-2.037.017-1.238,2.817C163.163,104.195,163.789,104.821,164.886,105.212Z" transform="translate(-138.507 -73.804)" fill="#fff"/>
  <path id="パス_4565" data-name="パス 4565" d="M72.844,64.589l-11.085-10.8a33.985,33.985,0,1,0-7.779,7.782L64.775,72.657c2.286,2.761,5.664,2.924,8.273.313S75.6,66.876,72.844,64.589ZM52.794,52.614a26.361,26.361,0,1,1,0-37.28A26.365,26.365,0,0,1,52.794,52.614Z" transform="translate(-0.183 -0.001)" fill="#fff"/>
</svg>
