<svg id="人物アイコン_チーム" data-name="人物アイコン　チーム" xmlns="http://www.w3.org/2000/svg" width="90.826" height="56.029" viewBox="0 0 90.826 56.029">
  <path id="パス_4553" data-name="パス 4553" d="M26.177,182.581c-.014-.141-.058-.272-.058-.413v-1.211a5.107,5.107,0,0,1,.283-1.685,32.274,32.274,0,0,0,4.446-8.789,27.746,27.746,0,0,1-2.983-11.473,25.638,25.638,0,0,1,.166-2.761,10.694,10.694,0,0,0-7.83-3.343c-6.278,0-11.373,5.122-11.373,13.083,0,6.37,5.183,13.282,5.183,13.282a5.253,5.253,0,0,1,.277,1.685v1.211a3.867,3.867,0,0,1-2.256,3.515L3.8,189.045A6.468,6.468,0,0,0,.15,193.751l-.141,1.81a3.389,3.389,0,0,0,3.379,3.648H16.839l.552-7.087.036-.191a11.6,11.6,0,0,1,6.561-8.457Z" transform="translate(0.001 -143.18)" fill="#fff"/>
  <path id="パス_4554" data-name="パス 4554" d="M368.811,193.751a6.458,6.458,0,0,0-3.65-4.706l-8.235-3.362a3.862,3.862,0,0,1-2.251-3.515v-1.211a5.11,5.11,0,0,1,.28-1.685s5.18-6.913,5.18-13.282c0-7.961-5.092-13.083-11.381-13.083a10.7,10.7,0,0,0-7.83,3.348,24.8,24.8,0,0,1,.169,2.755,27.783,27.783,0,0,1-2.977,11.47,32.193,32.193,0,0,0,4.449,8.792,5.257,5.257,0,0,1,.28,1.685v1.211c0,.141-.047.272-.061.413l2.04.832a11.667,11.667,0,0,1,6.713,8.512l.033.194.549,7.09h13.457a3.389,3.389,0,0,0,3.376-3.648Z" transform="translate(-278.136 -143.18)" fill="#fff"/>
  <path id="パス_4555" data-name="パス 4555" d="M160.944,141.811l-9.962-4.072a4.682,4.682,0,0,1-2.725-4.252v-1.469a6.169,6.169,0,0,1,.341-2.04s6.264-8.36,6.264-16.071c0-9.635-6.162-15.83-13.765-15.83s-13.765,6.195-13.765,15.83c0,7.711,6.27,16.071,6.27,16.071a6.313,6.313,0,0,1,.341,2.04v1.469a4.691,4.691,0,0,1-2.73,4.252l-9.962,4.072a7.8,7.8,0,0,0-4.418,5.7l-.513,6.6h49.554l-.507-6.6A7.819,7.819,0,0,0,160.944,141.811Z" transform="translate(-95.686 -98.078)" fill="#fff"/>
</svg>
