<?xml version="1.0" standalone="no"?>
<!DOCTYPE svg PUBLIC "-//W3C//DTD SVG 20010904//EN"
 "http://www.w3.org/TR/2001/REC-SVG-20010904/DTD/svg10.dtd">
<svg version="1.0" xmlns="http://www.w3.org/2000/svg"
 width="700.000000pt" height="700.000000pt" viewBox="0 0 700.000000 700.000000"
 preserveAspectRatio="xMidYMid meet">
<metadata>
Created by potrace 1.14, written by Peter Selinger 2001-2017
</metadata>
<g transform="translate(0.000000,700.000000) scale(0.100000,-0.100000)"
fill="#000000" stroke="none">
<path d="M1745 5250 l-1750 -1750 983 -982 982 -983 0 240 0 240 -742 742
-743 743 743 743 742 742 0 238 c0 130 2 237 5 237 2 0 53 -35 112 -78 59 -43
121 -87 136 -97 l29 -18 629 629 629 629 534 -534 533 -533 233 7 232 8 -763
763 c-420 420 -766 764 -769 764 -3 0 -793 -788 -1755 -1750z"/>
<path d="M3000 5575 c-432 -432 -493 -496 -480 -509 30 -29 2039 -1466 2049
-1466 8 0 11 212 11 697 l0 698 -537 537 c-296 296 -540 538 -543 538 -3 0
-228 -223 -500 -495z"/>
<path d="M5040 5225 l0 -240 742 -742 743 -743 -743 -743 -742 -742 0 -240 0
-240 982 983 983 982 -983 982 -982 983 0 -240z"/>
<path d="M1545 4120 l-620 -620 515 -515 515 -515 5 921 5 921 1427 -1026
c785 -564 1431 -1026 1435 -1026 5 0 287 279 628 620 l620 620 -515 515 -515
515 -5 -920 -5 -921 -1427 1026 c-784 564 -1430 1025 -1435 1025 -4 0 -287
-279 -628 -620z"/>
<path d="M2420 2707 l0 -702 540 -540 540 -540 500 500 499 500 -382 274
c-210 151 -675 485 -1034 743 -358 257 -654 468 -657 468 -3 0 -6 -316 -6
-703z"/>
<path d="M4128 1103 l-628 -628 -537 535 -538 535 -227 -3 c-126 -1 -228 -6
-228 -10 0 -4 344 -351 765 -772 l765 -765 765 765 c421 421 765 769 765 775
-1 10 -244 188 -264 193 -6 1 -293 -280 -638 -625z"/>
</g>
</svg>
