<svg id="インターネット接続のアイコン" xmlns="http://www.w3.org/2000/svg" width="61.709" height="61.709" viewBox="0 0 61.709 61.709">
  <path id="パス_4575" data-name="パス 4575" d="M158.723,280.3a4,4,0,0,1-.805.516c-.182.02-.366.035-.552.044v-2.147c-.441-.362-.887-.738-1.334-1.124v3.271c-.184-.009-.37-.024-.552-.044a4,4,0,0,1-.8-.516,8.585,8.585,0,0,1-2.3-3.435h2.837q-.726-.647-1.452-1.334h-1.853a18.574,18.574,0,0,1-.535-2.361q-.788-.818-1.535-1.637a21.172,21.172,0,0,0,.683,4h-3.411a11.177,11.177,0,0,1-1.659-5.252h3.274q-.579-.671-1.127-1.334h-2.147a11.123,11.123,0,0,1,.377-2.285q-.682-.928-1.272-1.825a13.051,13.051,0,0,0,16.922,16.923c-.794-.524-1.613-1.1-2.445-1.734C158.929,280.123,158.826,280.217,158.723,280.3Zm-9.993-2.718c-.23-.228-.447-.469-.653-.717h2.875a14.5,14.5,0,0,0,.713,1.653,10.591,10.591,0,0,0,1.03,1.631A11.282,11.282,0,0,1,148.73,277.584Z" transform="translate(-126.335 -232.916)" fill="#fff"/>
  <path id="パス_4576" data-name="パス 4576" d="M174.185,201.873c.178-.207.358-.411.553-.6a11.278,11.278,0,0,1,3.973-2.571,12.136,12.136,0,0,0-1.753,3.286h-2.7c.285.435.593.88.92,1.333h1.353c-.124.442-.228.9-.325,1.375.36.46.733.925,1.123,1.394a19.115,19.115,0,0,1,.593-2.768h4.12v5.253H179.5c.414.445.834.892,1.268,1.334h1.267v1.269c.442.431.89.854,1.334,1.267v-2.537h4.932a20.306,20.306,0,0,1-.813,5.252h-.977c.641.516,1.274,1,1.895,1.456.014-.041.033-.079.048-.121h2.872c-.208.248-.426.489-.653.717-.194.194-.4.377-.6.554.548.356,1.08.68,1.588.965a13.048,13.048,0,1,0-18.443-18.445C173.505,200.793,173.83,201.325,174.185,201.873ZM192.3,215.159h-3.414a22,22,0,0,0,.759-5.252h4.313A11.2,11.2,0,0,1,192.3,215.159Zm0-11.84a11.18,11.18,0,0,1,1.659,5.253h-4.316a22.037,22.037,0,0,0-.751-5.253Zm-1.62-2.049q.342.342.652.716h-2.873a14.647,14.647,0,0,0-.713-1.652,10.645,10.645,0,0,0-1.032-1.631A11.316,11.316,0,0,1,190.678,201.27Zm-7.3-3.281q.278.017.554.045a3.949,3.949,0,0,1,.8.516,8.613,8.613,0,0,1,2.3,3.435h-3.66v-4Zm0,5.33H187.5a20.454,20.454,0,0,1,.811,5.253h-4.937Zm-2.688-4.768a3.919,3.919,0,0,1,.8-.516c.182-.021.365-.034.552-.045v4h-3.653c.15-.364.3-.716.47-1.039A7.538,7.538,0,0,1,180.686,198.551Z" transform="translate(-152.342 -172.542)" fill="#fff"/>
  <path id="パス_4577" data-name="パス 4577" d="M138.292,188.433a61.487,61.487,0,0,0,19.73,19.73,17.381,17.381,0,0,0,2.6,1.208,6.809,6.809,0,0,0,2.216.45,3.166,3.166,0,0,0,1-.152,2.2,2.2,0,0,0,1.415-1.416,3.125,3.125,0,0,0,.153-1.006,6.964,6.964,0,0,0-.5-2.358,17.892,17.892,0,0,0-1.1-2.352,14.656,14.656,0,0,1-1.067,1.8c.2.416.37.807.5,1.167a5.292,5.292,0,0,1,.393,1.741,1.358,1.358,0,0,1-.06.435.458.458,0,0,1-.109.191.5.5,0,0,1-.19.11,1.418,1.418,0,0,1-.434.057,5.119,5.119,0,0,1-1.622-.347,15.952,15.952,0,0,1-2.327-1.087,59.791,59.791,0,0,1-19.039-19.039,15.949,15.949,0,0,1-1.086-2.328,5.068,5.068,0,0,1-.347-1.62,1.356,1.356,0,0,1,.058-.434.48.48,0,0,1,.109-.189.465.465,0,0,1,.192-.111,1.409,1.409,0,0,1,.434-.059,5.3,5.3,0,0,1,1.74.391c.362.134.754.3,1.172.506a15.007,15.007,0,0,1,1.8-1.069,17.871,17.871,0,0,0-2.358-1.105,6.969,6.969,0,0,0-2.356-.5,3.141,3.141,0,0,0-1,.154,2.21,2.21,0,0,0-1.416,1.414,3.2,3.2,0,0,0-.153,1.006,6.756,6.756,0,0,0,.451,2.217A17.393,17.393,0,0,0,138.292,188.433Z" transform="translate(-120.165 -159.227)" fill="#fff"/>
  <path id="パス_4578" data-name="パス 4578" d="M55.924,0H5.785A5.786,5.786,0,0,0,0,5.785V55.924a5.786,5.786,0,0,0,5.785,5.785H55.924a5.786,5.786,0,0,0,5.785-5.785V5.785A5.786,5.786,0,0,0,55.924,0Zm-2.33,4.218a2.29,2.29,0,1,1-2.29,2.29A2.29,2.29,0,0,1,53.594,4.218Zm-8.5,0a2.29,2.29,0,1,1-2.29,2.29A2.29,2.29,0,0,1,45.1,4.218Zm-8.5,0a2.29,2.29,0,1,1-2.29,2.29A2.29,2.29,0,0,1,36.6,4.218ZM56.888,55.924a.965.965,0,0,1-.964.964H5.785a.965.965,0,0,1-.964-.964V12.535H56.888Z" fill="#fff"/>
</svg>
