<svg xmlns="http://www.w3.org/2000/svg" width="59.668" height="63.646" viewBox="0 0 59.668 63.646">
  <g id="フィルムのアイコン素材3" transform="translate(-16)">
    <path id="パス_4579" data-name="パス 4579" d="M16,0V63.646H75.668V0Zm8.95,59.171H20.972V52.21H24.95Zm0-11.934H20.972V40.276H24.95Zm0-11.934H20.972V28.343H24.95Zm0-11.934H20.972V16.409H24.95Zm0-11.934H20.972V4.475H24.95ZM62.74,59.086H28.928V34.309H62.74Zm0-29.749H28.928V4.39H62.74ZM70.7,59.171H66.718V52.21H70.7Zm0-11.934H66.718V40.276H70.7Zm0-11.934H66.718V28.343H70.7Zm0-11.934H66.718V16.409H70.7Zm0-11.934H66.718V4.475H70.7Z" fill="#fff"/>
  </g>
</svg>
